<?xml version="1.0" encoding="UTF-8" standalone="no"?>
<svg width="40px" height="40px" viewBox="0 0 40 40" version="1.1" xmlns="http://www.w3.org/2000/svg" xmlns:xlink="http://www.w3.org/1999/xlink" xmlns:sketch="http://www.bohemiancoding.com/sketch/ns">
    <!-- Generator: Sketch 3.2.2 (9983) - http://www.bohemiancoding.com/sketch -->
    <title>Email</title>
    <desc>Created with Sketch.</desc>
    <defs></defs>
    <g id="Page-1" stroke="none" stroke-width="1" fill="none" fill-rule="evenodd" sketch:type="MSPage">
        <g id="Profile-+-Hi,-I'm-Ben-Lenarts.-+-Group" sketch:type="MSLayerGroup" transform="translate(-180.000000, -352.000000)" fill="#FFFFFF">
            <g id="Group" transform="translate(0.000000, 352.000000)" sketch:type="MSShapeGroup">
                <path d="M200,40 C211.045696,40 220,31.0456955 220,20 C220,8.95430446 211.045696,0 200,0 C188.954304,0 180,8.95430446 180,20 C180,31.0456955 188.954304,40 200,40 Z M203.432,20.175037 L210,15.0668889 L210,24.3113333 L203.432,20.175037 Z M191.2,25.9261481 C191.1488,25.9261481 191.1008,25.915037 191.056,25.8994815 C191.0424,25.8942963 191.0296,25.8854074 191.016,25.8787407 C190.9968,25.8691111 190.98,25.858 190.9624,25.8454074 L198.0048,21.4113333 L200,22.9631852 L201.9952,21.4113333 L209.0376,25.8454074 C209.02,25.858 209.0032,25.8691111 208.9832,25.8787407 C208.9704,25.8854074 208.9576,25.8942963 208.944,25.8994815 C208.8992,25.915037 208.8512,25.9261481 208.8,25.9261481 L191.2,25.9261481 Z M190,15.0668889 L196.568,20.175037 L190,24.3113333 L190,15.0668889 Z M208.8,13.3335556 C208.856,13.3335556 208.9088,13.3439259 208.9568,13.3639259 C208.9744,13.3698519 208.9864,13.3824444 209.0024,13.3920741 C209.0312,13.4076296 209.0608,13.4224444 209.084,13.4439259 C209.0848,13.4446667 209.0856,13.4461481 209.0856,13.4468889 L200,20.5142963 L190.9144,13.4468889 C190.9144,13.4461481 190.9152,13.4446667 190.9152,13.4439259 C190.9392,13.4224444 190.9688,13.4076296 190.9976,13.3920741 C191.0136,13.3824444 191.0256,13.3698519 191.0432,13.3639259 C191.0912,13.3439259 191.144,13.3335556 191.2,13.3335556 L208.8,13.3335556 Z" id="Email"></path>
            </g>
        </g>
    </g>
</svg>