<?xml version="1.0" encoding="UTF-8" standalone="no"?>
<svg width="40px" height="40px" viewBox="0 0 40 40" version="1.1" xmlns="http://www.w3.org/2000/svg" xmlns:xlink="http://www.w3.org/1999/xlink" xmlns:sketch="http://www.bohemiancoding.com/sketch/ns">
    <!-- Generator: Sketch 3.2.2 (9983) - http://www.bohemiancoding.com/sketch -->
    <title>Email</title>
    <desc>Created with Sketch.</desc>
    <defs></defs>
    <g id="Page-1" stroke="none" stroke-width="1" fill="none" fill-rule="evenodd" sketch:type="MSPage">
        <g id="Profile-+-Hi,-I'm-Ben-Lenarts.-+-Group" sketch:type="MSLayerGroup" transform="translate(-180.000000, -352.000000)" fill="#FFFFFF">
            <g id="Group" transform="translate(0.000000, 352.000000)" sketch:type="MSShapeGroup">
                <path d="M200,40 C211.045696,40 220,31.0456955 220,20 C220,8.95430446 211.045696,0 200,0 C188.954304,0 180,8.95430446 180,20 C180,31.0456955 188.954304,40 200,40 Z M203.795503,20.2327807 L211.059157,14.5835994 L211.059157,24.8071758 L203.795503,20.2327807 Z M190.267942,26.5930249 C190.211319,26.5930249 190.158235,26.580737 190.10869,26.5635338 C190.093649,26.5577995 190.079494,26.5479691 190.064453,26.5405963 C190.04322,26.5299468 190.02464,26.5176588 190.005176,26.5037325 L197.793477,21.6000202 L200,23.3162376 L202.206523,21.6000202 L209.994824,26.5037325 C209.97536,26.5176588 209.95678,26.5299468 209.934662,26.5405963 C209.920506,26.5479691 209.906351,26.5577995 209.89131,26.5635338 C209.841765,26.580737 209.788681,26.5930249 209.732058,26.5930249 L190.267942,26.5930249 Z M188.940843,14.5835994 L196.204497,20.2327807 L188.940843,24.8071758 L188.940843,14.5835994 Z M209.732058,12.6666788 C209.79399,12.6666788 209.852382,12.6781475 209.905466,12.7002658 C209.92493,12.7068194 209.938201,12.7207458 209.955896,12.7313953 C209.987746,12.7485985 210.020481,12.7649824 210.046138,12.7887391 C210.047023,12.7895583 210.047908,12.7911967 210.047908,12.7920159 L200,20.6079729 L189.952092,12.7920159 C189.952092,12.7911967 189.952977,12.7895583 189.952977,12.7887391 C189.979519,12.7649824 190.012254,12.7485985 190.044104,12.7313953 C190.061799,12.7207458 190.07507,12.7068194 190.094534,12.7002658 C190.147618,12.6781475 190.20601,12.6666788 190.267942,12.6666788 L209.732058,12.6666788 Z" id="Email"></path>
            </g>
        </g>
    </g>
</svg>