<?xml version="1.0" encoding="UTF-8" standalone="no"?>
<svg width="40px" height="40px" viewBox="0 0 40 40" version="1.1" xmlns="http://www.w3.org/2000/svg" xmlns:xlink="http://www.w3.org/1999/xlink" xmlns:sketch="http://www.bohemiancoding.com/sketch/ns">
    <!-- Generator: Sketch 3.2.2 (9983) - http://www.bohemiancoding.com/sketch -->
    <title>Github</title>
    <desc>Created with Sketch.</desc>
    <defs></defs>
    <g id="Page-1" stroke="none" stroke-width="1" fill="none" fill-rule="evenodd" sketch:type="MSPage">
        <g id="Profile-+-Hi,-I'm-Ben-Lenarts.-+-Group" sketch:type="MSLayerGroup" transform="translate(-60.000000, -352.000000)" fill="#FFFFFF">
            <g id="Group" transform="translate(0.000000, 352.000000)" sketch:type="MSShapeGroup">
                <path d="M80,40 C91.0456955,40 100,31.0456955 100,20 C100,8.95430446 91.0456955,0 80,0 C68.9543045,0 60,8.95430446 60,20 C60,31.0456955 68.9543045,40 80,40 Z M71.6956357,20.3790269 C71.4013383,19.5279318 71.2709697,18.5531677 71.2709697,17.4642479 C71.2709697,15.531209 71.8840893,14.8018801 72.7069603,13.7713066 C72.077706,11.5674647 72.9328465,10.0612418 72.9328465,10.0612418 C72.9328465,10.0612418 74.255894,9.79170723 76.7567765,11.5516097 C78.1120935,10.9808305 81.7262721,10.9332656 83.436553,11.4247699 C84.4853102,10.7430059 86.4053426,9.77585225 87.1798094,10.0466553 C87.3895608,10.3783414 87.8413332,11.345495 87.4540997,13.470062 C87.7167731,13.9361983 89.083707,14.9287199 89.0888702,17.7350509 C89.0669269,18.7700638 88.9572108,19.6439902 88.7539132,20.3828321 C88.7926029,20.3825161 88.4942782,21.2989978 88.4234741,21.296713 C87.5167025,23.253788 85.6566913,23.9844488 82.6511145,24.2882302 C83.6250066,24.8907193 83.90446,25.6466846 83.90446,27.6919767 C83.90446,29.7372688 83.8767083,30.011877 83.8831622,30.4824527 C83.8934884,31.254273 85.0448625,31.6240111 85.0016214,31.8726172 C84.9583803,32.120589 84.0380556,32.0806345 83.6082265,31.9328661 C82.389732,31.5155631 82.5117105,30.5192363 82.5117105,30.5192363 L82.471051,27.7845698 C82.471051,27.7845698 82.5543062,26.3125937 82.0005624,26.3125937 L82.0005624,30.7887709 C82.0005624,31.7616323 82.6943556,32.0571691 82.6943556,32.41676 C82.6943556,33.0351041 81.4281023,32.3584137 81.037642,31.9728206 C80.4432387,31.3861865 80.5110045,30.1418878 80.5252031,29.158245 C80.5387562,28.2082148 80.5161676,26.1299443 80.5161676,26.1299443 L80.1127995,26.1381889 C80.1127995,26.1381889 80.2780191,30.6777861 79.8998211,31.5047817 C79.4106162,32.5670652 77.9346115,32.9323639 77.9346115,32.4484699 C77.9346115,32.1231258 78.2979655,32.2265003 78.4993269,31.4971713 C78.6710004,30.8769246 78.61227,26.2491738 78.61227,26.2491738 C78.61227,26.2491738 78.1391998,26.523782 78.1391998,27.3907321 C78.1391998,27.7871066 78.1282282,30.0537342 78.1282282,30.7278878 C78.1282282,31.5764462 76.901989,32.0597059 76.3127488,32.0597059 C76.0145791,32.0597059 75.6434804,32.0451193 75.6434804,31.8897405 C75.6434804,31.4971713 76.7645212,31.266957 76.7645212,30.4507428 C76.7645212,29.7429766 76.7490318,27.922191 76.7490318,27.922191 C76.7490318,27.922191 76.183671,28.0173209 75.3769347,28.0173209 C73.3439593,28.0173209 72.7011518,26.7425807 72.3952374,26.0291067 C71.9970324,25.100005 71.4807211,24.663676 70.9321405,24.3148665 C70.5952474,24.1005072 70.5178007,23.848096 70.9076157,23.7757973 C72.7069603,23.4428428 73.1671227,25.7811348 74.3688371,26.1540439 C75.2265591,26.4197733 76.329529,26.3049833 76.8781096,25.9561738 C76.9503932,25.2420656 77.4744491,24.6243557 77.9107321,24.2990116 C74.8541696,24.010451 73.0419172,22.9671935 72.1022308,21.290371 C72.0903359,21.2906518 71.6595585,20.3789395 71.6956357,20.3790269 Z" id="Github"></path>
            </g>
        </g>
    </g>
</svg>