<?xml version="1.0" encoding="UTF-8" standalone="no"?>
<svg width="40px" height="40px" viewBox="0 0 40 40" version="1.1" xmlns="http://www.w3.org/2000/svg" xmlns:xlink="http://www.w3.org/1999/xlink" xmlns:sketch="http://www.bohemiancoding.com/sketch/ns">
    <!-- Generator: Sketch 3.2.2 (9983) - http://www.bohemiancoding.com/sketch -->
    <title>Instergram</title>
    <desc>Created with Sketch.</desc>
    <defs></defs>
    <g id="Page-1" stroke="none" stroke-width="1" fill="none" fill-rule="evenodd" sketch:type="MSPage">
        <g id="Profile-+-Hi,-I'm-Ben-Lenarts.-+-Group" sketch:type="MSLayerGroup" transform="translate(0.000000, -352.000000)" fill="#FFFFFF">
            <g id="Group" transform="translate(0.000000, 352.000000)" sketch:type="MSShapeGroup">
                <path d="M20,40 C31.0456955,40 40,31.0456955 40,20 C40,8.95430446 31.0456955,0 20,0 C8.95430446,0 0,8.95430446 0,20 C0,31.0456955 8.95430446,40 20,40 Z M28.1370126,30.1699952 L11.8629874,30.1699952 C11.819717,30.1630255 11.7761562,30.1546038 11.7328858,30.1493765 C10.8381469,30.0343759 10.0859971,29.3513426 9.886779,28.4702527 C9.86354658,28.3674493 9.8487359,28.2631937 9.83014996,28.1598094 L9.83014996,11.8410618 C9.83682928,11.8030187 9.84467023,11.765266 9.84989753,11.7272229 C9.97825669,10.8141885 10.6450274,10.0884655 11.5461552,9.88314894 C11.6431505,9.86107813 11.7421788,9.84771949 11.8406262,9.83000476 L28.1593738,9.83000476 C28.1971265,9.83668408 28.2345888,9.84510584 28.2729223,9.85004273 C29.1961209,9.97636905 29.9479804,10.6837965 30.1259988,11.5953789 C30.1434232,11.6842429 30.1556202,11.7736877 30.16985,11.8628422 L30.16985,28.1371578 C30.1550394,28.2277643 30.1422615,28.3195324 30.1248372,28.4098484 C29.9625006,29.2453446 29.2838233,29.9382518 28.453264,30.1145278 C28.3487181,30.1371794 28.2427202,30.1519901 28.1370126,30.1699952 Z M12.0305513,18.0772262 L12.0305513,18.1321128 C12.0305513,21.1421642 12.0302609,24.1522156 12.0308417,27.1622671 C12.0308417,27.5952614 12.405755,27.9675611 12.8387494,27.9675611 C17.6118516,27.9678515 22.3846635,27.9678515 27.1577658,27.9675611 C27.5948258,27.9675611 27.9677063,27.5958422 27.9677063,27.1596534 C27.9679967,24.1530869 27.9677063,21.1468107 27.9677063,18.1405346 L27.9677063,18.0780974 L26.0260561,18.0780974 C26.3001988,18.9542503 26.3844163,19.8455044 26.2769664,20.7538923 C26.1689356,21.6625706 25.876207,22.508231 25.3993614,23.289131 C24.9222254,24.0709021 24.303662,24.7185061 23.5462849,25.2339756 C21.5831447,26.5710018 18.9985372,26.6886159 16.9154596,25.519444 C15.8624498,24.9290499 15.0356658,24.1057508 14.4592112,23.0449001 C13.599321,21.4619005 13.4619592,19.8004915 13.9663933,18.0766454 C13.3222743,18.0772262 12.6807688,18.0772262 12.0305513,18.0772262 L12.0305513,18.0772262 Z M20.0001452,15.8782769 C17.7442765,15.8768249 15.9103667,17.6918583 15.8787125,19.9375629 C15.8461871,22.2436717 17.6922939,24.0717734 19.9054731,24.1193998 C22.2083875,24.1687688 24.0710474,22.3287605 24.119545,20.0908969 C24.1692044,17.7830456 22.3077061,15.8768249 20.0001452,15.8782769 L20.0001452,15.8782769 Z M26.1808422,15.0520737 L26.1808422,15.0482984 C26.5153892,15.0482984 26.8510977,15.0546874 27.1859351,15.046556 C27.6166062,15.035811 27.9674159,14.6667058 27.9674159,14.2354539 C27.9677063,13.5933676 27.9677063,12.950991 27.9674159,12.3089048 C27.9674159,11.8483219 27.6029572,11.4818304 27.1429551,11.48154 C26.5026113,11.4812496 25.8622675,11.4809592 25.2216333,11.48154 C24.7627929,11.4821208 24.3971726,11.8494835 24.3968822,12.3100664 C24.3965917,12.9466349 24.3948493,13.5832035 24.3992054,14.2200624 C24.3997862,14.3150249 24.4177913,14.4137628 24.4479935,14.5037884 C24.562994,14.8426914 24.8734373,15.0506217 25.2535779,15.0523641 C25.5625692,15.0529449 25.8715605,15.0520737 26.1808422,15.0520737 L26.1808422,15.0520737 Z" id="Instergram"></path>
            </g>
        </g>
    </g>
</svg>