<?xml version="1.0" encoding="UTF-8" standalone="no"?>
<svg width="40px" height="40px" viewBox="0 0 40 40" version="1.1" xmlns="http://www.w3.org/2000/svg" xmlns:xlink="http://www.w3.org/1999/xlink" xmlns:sketch="http://www.bohemiancoding.com/sketch/ns">
    <!-- Generator: Sketch 3.2.2 (9983) - http://www.bohemiancoding.com/sketch -->
    <title>Twitter</title>
    <desc>Created with Sketch.</desc>
    <defs></defs>
    <g id="Page-1" stroke="none" stroke-width="1" fill="none" fill-rule="evenodd" sketch:type="MSPage">
        <g id="Profile-+-Hi,-I'm-Ben-Lenarts.-+-Group" sketch:type="MSLayerGroup" transform="translate(-120.000000, -352.000000)" fill="#FFFFFF">
            <g id="Group" transform="translate(0.000000, 352.000000)" sketch:type="MSShapeGroup">
                <path d="M140,40 C151.045696,40 160,31.0456955 160,20 C160,8.95430446 151.045696,0 140,0 C128.954304,0 120,8.95430446 120,20 C120,31.0456955 128.954304,40 140,40 Z M142.778136,12.18872 C141.031961,12.8242717 139.928379,14.4625826 140.054103,16.2562505 L140.096011,16.9482956 L139.397541,16.8635554 C136.855111,16.5387179 134.633976,15.4370951 132.748107,13.5869336 L131.826127,12.6689146 L131.588647,13.3468363 C131.085749,14.8580369 131.407045,16.4539777 132.45475,17.5273538 C133.013526,18.1205353 132.887801,18.2052756 131.923913,17.8521913 C131.588647,17.7392044 131.29529,17.6544641 131.267351,17.6968342 C131.169565,17.7956978 131.504831,19.0809245 131.770249,19.5893658 C132.133454,20.2955343 132.873832,20.9875794 133.684057,21.3971571 L134.368558,21.7219946 L133.558332,21.736118 C132.776046,21.736118 132.748107,21.7502414 132.831924,22.0468321 C133.111312,22.9648512 134.214894,23.9393637 135.444201,24.3630648 L136.310304,24.6596556 L135.555957,25.1116034 C134.438405,25.7612784 133.125281,26.128486 131.812157,26.1567328 C131.183534,26.1708561 130.666667,26.2273496 130.666667,26.2697197 C130.666667,26.4109534 132.370933,27.2018621 133.362761,27.5125763 C136.338243,28.4305953 139.872501,28.0351409 142.526687,26.4674469 C144.412556,25.3517007 146.298425,23.1343316 147.178497,20.9875794 C147.653457,19.8435865 148.128416,17.7533277 148.128416,16.7505685 C148.128416,16.1008935 148.170324,16.0161532 148.952611,15.2393679 C149.413601,14.7874201 149.846652,14.2931021 149.930469,14.1518684 C150.070163,13.8835244 150.056193,13.8835244 149.343754,14.1236217 C148.156355,14.5473228 147.988722,14.4908293 148.575437,13.8552777 C149.008488,13.4033298 149.525356,12.5841744 149.525356,12.3440771 C149.525356,12.301707 149.315815,12.3723238 149.078335,12.4994342 C148.826886,12.6406678 148.26811,12.8525184 147.849028,12.9796287 L147.094681,13.219726 L146.41018,12.7536548 C146.033006,12.4994342 145.502169,12.2169668 145.222781,12.1322265 C144.510342,11.9344994 143.420728,11.9627461 142.778136,12.18872 Z" id="Twitter"></path>
            </g>
        </g>
    </g>
</svg>